<?xml version="1.0" encoding="UTF-8" standalone="no"?>
<!DOCTYPE svg PUBLIC "-//W3C//DTD SVG 1.1//EN" "http://www.w3.org/Graphics/SVG/1.1/DTD/svg11.dtd">
<svg width="100%" height="100%" viewBox="0 0 1025 460" version="1.1" xmlns="http://www.w3.org/2000/svg" xmlns:xlink="http://www.w3.org/1999/xlink" xml:space="preserve" xmlns:serif="http://www.serif.com/" style="fill-rule:evenodd;clip-rule:evenodd;stroke-linejoin:round;stroke-miterlimit:2;">
    <g id="Layer1">
    </g>
    <g id="Artboard1" transform="matrix(0.975262,0,0,0.940695,0,-296.319)">
        <rect x="0" y="315" width="1051" height="489" style="fill:none;"/>
        <g transform="matrix(1.02537,0,0,1.06304,-31.7863,-51.75)">
            <path d="M332.309,719.351C332.149,720.909 330.094,734.281 329.269,743.986C328.362,754.648 336.786,760.395 341.168,762.834C345.549,765.274 364.172,755.692 366.176,753.803C368.179,751.914 350.75,721.928 350.75,721.928C338.869,703.19 334.407,686.984 329.53,673.305C324.653,659.627 327.977,656.53 332.562,649.993C337.148,643.456 339.534,636.479 349.199,622.35C358.865,608.222 365.446,605.099 369.295,604.203C373.144,603.308 376.761,607.272 377.857,609.497C378.952,611.722 378.708,614.482 383.364,638.01C388.02,661.537 384.607,656.953 386.246,670.896C387.635,682.721 379.559,677.832 375.245,675.929C369.403,673.352 367.904,673.505 365.322,664.863C362.739,656.22 359.099,629.878 359.188,628.526C359.277,627.174 355.1,626.247 354.025,627.306C352.95,628.365 346.417,646.725 346.417,646.725C348.729,674.466 362.92,695.045 369.755,715.895C375.801,734.337 386.099,751.445 384.488,757.817C382.876,764.189 367.927,776.923 358.063,777.886C348.199,778.848 332.831,771.905 324.026,769.798C315.22,767.692 311.289,764.382 307.099,757.499C302.91,750.616 302.004,733.651 303.041,726.628C304.079,719.605 304.609,706.624 309.929,701.384C315.25,696.144 319.113,700.285 326.441,701.569C333.769,702.854 340.836,706.896 341.722,713.3C342.577,719.477 332.762,720.217 332.309,719.351C332.325,719.197 332.322,719.158 332.298,719.249C332.288,719.285 332.292,719.319 332.309,719.351ZM413.963,634.299C413.963,634.299 410.836,637.976 406.203,634.299C401.57,630.622 405.413,626.52 413.963,620.331C422.513,614.143 434.39,611.446 440.346,611.02C446.302,610.594 453.028,619.87 455.866,623.435C458.704,627.001 458.223,632.857 454.314,637.403C450.405,641.949 433.044,706.334 431.034,713.45C431.034,713.45 456.253,696.125 463.626,693.274C470.999,690.424 480.273,697.509 479.146,702.586C478.018,707.663 472.097,721.169 465.178,719.658C458.259,718.146 462.521,710.846 462.074,710.346C461.627,709.846 442.153,716.811 432.586,724.314C423.02,731.816 421.16,731.502 424.827,738.281C428.493,745.061 444.589,773.725 460.522,777.081C460.522,777.081 463.66,769.061 469.623,770.873C474.982,772.502 476.495,781.453 472.938,789.497C469.173,798.009 457.418,794.153 457.418,794.153C457.418,794.153 433.12,784.026 420.171,744.489C420.171,744.489 416.832,784.765 417.067,791.049C417.301,797.332 411.492,794.947 407.755,791.049C404.018,787.15 395.989,782.767 398.443,752.249C400.897,721.732 398.93,713.888 407.755,680.858C416.58,647.829 413.963,634.299 413.963,634.299ZM259,465C281.81,454.627 286.901,476.623 273,485C259.099,493.377 249.117,504.13 240,511C230.883,517.87 223.92,517.945 222.03,504.211C220.141,490.477 234,481 234,481C220.351,480.682 198,471 198,471C198,471 188.553,483.259 180,522C171.447,560.741 177.802,603.903 179,637C180.198,670.097 194,705 194,705C218.595,700.839 233.668,722.793 233,731C232.332,739.207 226.212,749.033 200,741C173.788,732.967 152.469,719.894 154,710C155.531,700.106 172,702 172,702C160.534,673.5 147.631,650.493 136,594C124.703,539.132 127,451 127,451C117.057,450.616 86,433 86,433C90.502,456.809 85.383,461.826 76,457C66.617,452.174 61.653,454.328 55.214,436.585C48.775,418.843 39.49,421.888 40.862,402C42.234,382.112 51.618,360.867 61,356C70.382,351.133 78.833,353.796 89,367C99.167,380.204 88,386 88,386C88,386 129.974,403.386 175,419C220.026,434.614 259,465 259,465ZM200.807,550.548C200.644,541.837 226.694,533.793 264.773,531.953C302.852,530.113 320.228,547.458 320.557,549.06C320.886,550.662 324.189,564.537 324.276,574.349C324.364,584.161 326.058,592.371 325.764,594.431C325.47,596.492 312.232,620.763 305.682,630.133C299.131,639.504 286.397,667.924 287.831,668.811C289.264,669.697 292.534,667.779 294.525,665.835C296.516,663.892 302.589,662.172 309.4,668.067C316.212,673.961 309.924,682.868 304.194,688.893C298.464,694.918 289.129,698.622 278.905,700.05C268.681,701.477 265.642,692.077 267.004,682.943C268.366,673.808 275.73,661.457 273.698,660.629C271.667,659.8 265.418,666.397 261.054,670.298C256.69,674.2 249.714,675.755 240.228,682.199C230.742,688.642 230.491,689.646 219.402,689.637C208.312,689.627 209.271,689.154 203.782,682.199C198.293,675.244 197.735,668.308 195.6,662.116C193.466,655.925 193.3,646.526 203.782,634.596C214.264,622.666 255.023,615.592 264.773,613.77C274.523,611.948 279.826,612.705 281.88,615.258C283.934,617.81 288.574,622.695 288.574,622.695C288.574,622.695 298.25,596.785 301.963,590.712C305.675,584.64 309.474,570.479 308.657,566.911C307.84,563.343 281.575,558.436 262.542,560.217C243.508,561.998 230.165,568.591 229.815,572.861C229.465,577.132 232.151,582.688 223.121,582.531C214.091,582.373 211.378,574.89 206.757,566.167C202.137,557.445 200.951,558.267 200.807,550.548ZM208.551,672.877C210.345,671.895 218.266,669.103 231.302,662.86C247.103,655.294 278.575,643.182 280.393,642.034C282.21,640.886 284.616,637.215 285.534,633.852C286.451,630.49 275.764,628.145 271.467,628.646C267.17,629.147 237.943,638.143 229.815,642.034C221.687,645.925 220.546,647.432 214.195,655.422C208.694,662.343 209.031,670.93 208.551,672.877ZM208.551,672.877C208.17,673.085 208.065,673.212 208.245,673.273C208.383,673.32 208.476,673.178 208.551,672.877ZM741,550C741,550 740.971,534.033 755,535.631C769.029,537.229 768.606,534.688 775,541C781.394,547.312 782.286,554.326 781,565C779.714,575.674 786.661,587.94 786,597C785.339,606.06 784.787,613.784 775,610C765.213,606.216 747.346,603.865 743,580C743,580 734.531,581.546 730,598C722.698,624.516 710.117,625.587 709,630C707.883,634.413 716.072,637.554 724,661C731.928,684.446 742.09,696.889 747,697C751.91,697.111 766.888,677.124 767,665C767.112,652.876 766.599,639.792 768,638C769.401,636.208 782.036,638.916 783,640C783.964,641.084 782.915,657.655 787,664C791.085,670.345 800.663,681.297 790,702C779.337,722.703 778.054,736.015 760,733C741.946,729.985 746.046,729.673 723,705C699.954,680.327 693.623,667.243 688,651C682.377,634.757 677.667,625.3 688,604C698.333,582.7 696.211,582.706 706,564C715.789,545.294 723.089,539.421 730,541C736.911,542.579 741,550 741,550ZM500,582C499.497,580.245 479.043,581.56 467,580C454.957,578.44 449.247,577.615 447,580C444.753,582.385 447.206,596.492 433,594C418.794,591.508 414.253,583.459 413,567C411.747,550.541 409.161,536.876 423,534C436.839,531.124 444,546 444,546C444,546 497.826,550.995 530,559C562.174,567.005 591,577 591,577C591,577 607.341,571.391 610,579C612.659,586.609 616.783,604.302 589,612C561.217,619.698 554.472,603.393 565,593C571.503,586.581 559.875,586.156 555,586C550.125,585.844 540.448,585.02 541.872,587C543.297,588.98 552.457,610.071 551,634C549.543,657.929 544.641,667.244 534,686C523.359,704.756 513.224,740.615 506,745C506,745 530.782,761.695 520,771C509.218,780.305 494.936,771.344 486,757C477.064,742.656 477.197,736.596 480,733.987C482.803,731.377 490,733.987 490,733.987C490,733.987 499.494,694.857 503,667C506.506,639.143 502.868,592.012 500,582ZM664,719C664,719 665.52,712.27 662,705C658.974,698.751 658.075,700.404 658,688C657.925,675.596 657.661,662.842 657,660C656.339,657.158 649.983,646.787 648,647C646.017,647.213 611.284,666.691 608,670C604.716,673.309 603.171,677.17 601,688C598.829,698.83 588.833,703.077 579,698C569.167,692.923 556.186,681.871 554,677C551.814,672.129 551.487,669 557,663C562.513,657 584.664,637.972 601,632C617.336,626.028 624.828,620.232 638,627C651.172,633.768 651.155,629.519 663,642C674.845,654.481 692.17,679.321 695,689C697.83,698.679 697.911,706.636 696,720C694.089,733.364 697.393,743.846 708,755C718.607,766.154 710.584,775.963 696,762C681.416,748.037 680.199,749.71 677,753C673.801,756.29 647.324,774.918 623,782C598.676,789.082 589.367,795.39 571,790C552.633,784.61 543.849,784.2 543,769C542.04,751.809 546.569,746.346 554,743C567.545,736.9 640.899,701.902 648,703C655.101,704.098 664,719 664,719ZM577,758C575.289,759.678 581.347,772.775 586,773C590.653,773.225 640.92,755.05 656,731C656,731 617.433,718.336 577,758ZM802,502C801.335,500.419 795.11,507.772 790,505C784.89,502.228 779.252,493.233 783,485C786.748,476.767 799.436,464.783 810,458C820.564,451.217 837,443 837,443C837,443 863.26,426.264 872,446C881.698,467.9 858.728,478.817 859,481C859.647,486.194 866.641,493.985 866,529C865.359,564.015 868.228,586.201 851,634.472C833.772,682.742 826.353,731.738 828,745C828,745 864.127,743.204 876,725C887.873,706.796 897.723,683.333 907,674C916.277,664.667 925.924,657.056 938,672C950.076,686.944 945.63,687.579 935,702.49C924.37,717.401 908.225,742.913 901,753C893.775,763.087 891.577,766.845 884,764C876.423,761.155 880.575,753.757 879,753C877.425,752.243 844.531,765.041 833,767C821.469,768.959 803.552,778.851 794.869,776.803C786.186,774.756 768.983,764.219 769,757C769.017,749.781 775.594,749.049 781,753C786.406,756.951 800.607,752.48 803,751C805.393,749.52 806.78,693.656 809,656.217C811.22,618.778 811.99,525.729 802,502ZM919,486C916.782,482.686 912.22,488.313 908,491C903.78,493.687 894.233,492.689 892,490C889.767,487.311 879.42,484.103 879,479C878.58,473.897 901.145,462.994 923,449C944.855,435.006 998.35,420.798 1008,419C1017.65,417.202 1013.84,411.788 1021,410C1028.16,408.212 1036.1,410.778 1042,419C1047.9,427.222 1045.73,439.545 1036,455C1026.27,470.455 1018.12,473.958 1009,474C999.885,474.042 1001.19,464.367 1000,464C998.809,463.633 989.206,463.613 984,466C978.794,468.387 970.188,471.206 965,471C959.812,470.794 961.952,476.286 963,483C964.048,489.714 961.008,507.345 957,532C952.992,556.655 950,567 950,567C950,567 953.612,567.769 958,568C962.388,568.231 970.455,567.498 971,567C971.545,566.502 974.526,553.612 987,550C999.474,546.388 997.172,558.449 997,569C996.828,579.551 992.315,592.523 989,599C985.685,605.477 980.677,603.426 974,600C967.323,596.574 966.168,589.545 966,588C965.832,586.455 960.831,586.926 958,586C955.169,585.074 945.238,585 945.238,585C945.238,585 943.247,595.562 941,606.729C938.753,617.896 933.438,632.109 935,633C936.562,633.891 945.523,632.199 954,631C962.477,629.801 980,631 980,631C980.827,629.323 990.988,614.541 1001,613.957C1011.01,613.372 1014.1,619.552 1014,634.472C1013.9,649.392 1007.38,648.108 997,654C986.62,659.892 986.769,662.363 976,663C965.231,663.637 968,653 968,653C966.553,653.555 933.888,649.926 922,650C910.112,650.074 904.84,652.96 900,651C895.16,649.04 888.87,643.994 902,637C915.13,630.006 917.037,640.293 916,634.472C914.963,628.65 918.856,603.89 920,563C921.144,522.11 920.394,488.084 919,486Z" style="fill:rgb(93,197,102);"/>
            <path d="M558.341,616.265C559.06,621.993 559.371,628.147 558.985,634.486C558.573,641.254 557.909,646.927 556.944,651.984C566.686,643.278 584.431,629.539 598.253,624.486C604.877,622.065 610.068,619.68 614.765,618.119C623.791,615.12 631.393,614.611 641.656,619.884C656.034,627.272 655.873,622.869 668.803,636.493C671.776,639.626 675.061,643.499 678.384,647.724C673.185,632.708 670.43,621.888 680.802,600.508C691.193,579.09 689.069,579.1 698.912,560.291C705.645,547.425 711.627,540.06 716.826,536.453C722.055,532.825 727.001,532.108 731.782,533.201C733.839,533.671 735.732,534.487 737.441,535.489C740.676,530.583 746.261,526.584 755.906,527.682C761.313,528.298 764.493,528.268 766.756,528.409C772.276,528.752 774.608,529.371 780.62,535.307C788.829,543.411 790.594,552.253 788.943,565.957C788.286,571.405 790.41,577.297 791.886,582.838C793.292,588.12 794.3,593.174 793.979,597.582C793.641,602.211 793.19,606.532 792.057,609.671C791.707,610.641 791.298,611.532 790.837,612.341L788.855,615.03L786.994,616.648L784.749,617.913C781.822,619.182 777.746,619.639 772.115,617.462C762.805,613.862 747.728,610.897 739.586,595.064C738.895,596.51 738.245,598.191 737.713,600.124C732.392,619.445 724.441,626.963 719.115,631.249C718.912,631.412 718.7,631.581 718.486,631.751C721.339,635.782 726.945,644.735 731.578,658.437C735.936,671.323 740.932,680.629 745.281,685.995C745.714,686.529 746.231,687.074 746.727,687.563C748.584,685.576 751.46,682.316 753.302,679.363C756.274,674.597 758.961,669.195 759,664.926C759.093,654.861 758.82,644.158 759.432,639.327C759.637,637.714 759.963,636.458 760.291,635.598L761.697,633.074L763.708,631.199L766.206,629.999C767.536,629.575 769.645,629.304 772.144,629.451C776.325,629.696 782.179,631 784.78,631.975L787.107,633.102L788.976,634.682L790.641,637.513L791.374,641.735C791.578,644.597 791.633,649.733 792.334,654.429C792.637,656.457 792.919,658.415 793.727,659.669C795.562,662.52 798.221,666.196 800.199,670.966C800.458,665.689 800.728,660.562 801.014,655.744C802.553,629.786 803.394,576.838 800.363,539.344C799.523,528.956 798.449,519.815 796.953,512.958C796.01,513.24 795.05,513.441 794.089,513.546L791.261,513.572L788.713,513.081L786.186,512.032C778.444,507.833 770.041,494.158 775.719,481.686C779.909,472.48 793.866,458.853 805.677,451.268C815.732,444.812 830.958,437.087 833.137,435.989C835.326,434.69 845.393,429.024 855.434,428.432C864.801,427.88 874.117,431.024 879.315,442.761C883.187,451.505 882.513,459.469 880.044,466.096C888.453,460.121 903.705,451.855 918.686,442.263C941.284,427.793 996.557,412.994 1006.53,411.135C1008.23,410.819 1008.66,410.239 1009.05,409.61C1009.56,408.796 1010.09,408.007 1010.73,407.253L1014.25,404.207C1015.5,403.441 1017.04,402.743 1019.06,402.238C1029.04,399.747 1040.27,402.882 1048.5,414.333C1055.83,424.537 1054.85,440.082 1042.77,459.263C1030.78,478.307 1020.27,481.948 1009.04,482C1004.73,482.02 1001.65,480.755 999.359,479.088C997.13,477.469 995.497,474.55 994.405,471.969C991.985,472.12 989.083,472.47 987.334,473.272C982.804,475.349 976.078,477.582 970.378,478.534C970.563,479.638 970.752,480.793 970.904,481.766C972.006,488.82 969.107,507.379 964.896,533.284C962.921,545.436 961.181,554.202 959.905,560.033C961.657,560.01 963.855,559.858 965.589,559.713C968.372,554.45 974.528,545.283 984.775,542.316C990.574,540.637 994.645,541.378 997.5,542.843L999.794,544.354L1001.64,546.234L1003.49,549.29C1003.9,550.201 1004.24,551.194 1004.51,552.265C1005.6,556.687 1005.1,563.122 1005,569.131C1004.81,580.912 999.823,595.413 996.121,602.645C995.236,604.375 994.253,605.744 993.232,606.833L991.249,608.6L988.921,609.98L986.573,610.809L984.236,611.184C982.898,611.283 981.493,611.198 980.023,610.916C977.192,610.374 973.935,608.958 970.348,607.118C964.026,603.874 960.912,598.537 959.398,594.389C957.991,594.184 956.458,593.913 955.513,593.604C954.753,593.355 953.357,593.205 951.832,593.115C951.048,597.177 949.978,602.665 948.843,608.307C947.92,612.893 946.291,619.195 944.946,624.165C947.607,623.809 950.487,623.417 952.879,623.079C959.088,622.2 969.859,622.503 975.969,622.777C977.999,620.077 980.873,616.677 984.238,613.717C989.078,609.462 994.909,606.298 1000.53,605.97C1007.37,605.571 1012.16,607.5 1015.63,611.011C1019.68,615.119 1022.08,622.609 1022,634.527C1021.96,640.676 1020.9,644.78 1019.37,647.789C1017.59,651.276 1015.14,653.607 1011.94,655.511C1009.1,657.211 1005.37,658.447 1000.95,660.957C988.932,667.779 988.94,670.248 976.472,670.986C970.089,671.364 966.276,669.213 963.838,666.749L961.239,663.057L960.361,660.661C953.755,660.143 943.643,659.2 934.937,658.587C937.957,660.374 941.069,663.07 944.222,666.972C950.627,674.898 952.934,680.107 953.206,684.387C953.425,687.839 952.582,691.053 950.513,694.618C948.683,697.773 945.536,701.493 941.514,707.134C930.881,722.049 914.731,747.569 907.504,757.658C904.109,762.399 901.648,765.845 899.374,768.065C896.753,770.623 894.131,772.028 891.267,772.62C888.446,773.203 885.231,773.008 881.188,771.489C876.583,769.76 874.112,766.488 872.799,763.245C862.203,766.86 841.936,773.596 834.34,774.887C827.725,776.011 818.936,779.943 811.15,782.424C804.074,784.679 797.561,785.657 793.033,784.59C785.89,782.905 773.811,776.381 767.23,769.679C763.039,765.409 760.991,760.764 761,756.981C761.007,754.096 761.639,751.751 762.57,749.875L764.73,746.746L767.684,744.402C772.26,741.769 779.32,741.99 785.485,746.371C785.866,746.408 788.167,746.618 789.555,746.473C791.657,746.252 794.27,745.562 796.21,744.981C797.167,737.291 797.96,720.708 798.782,702.171C798.28,703.309 797.725,704.473 797.112,705.663C791.564,716.435 788.376,725.244 784.307,731.008C778.643,739.032 771.759,743.074 758.682,740.891C738.65,737.546 742.724,737.837 717.154,710.461C712.388,705.358 708.305,700.725 704.776,696.443C705.729,703.55 705.38,710.915 703.919,721.132C702.369,731.977 705.189,740.436 713.797,749.487C719.751,755.748 721.28,762.081 720.744,766.271L719.478,770.414L718.231,772.357L716.591,774.046L714.655,775.364L712.559,776.26L708.319,776.886C704.105,776.852 697.687,774.69 690.468,767.779C686.674,764.147 683.252,761.388 681.276,759.87C674.379,765.522 648.893,782.794 625.236,789.681C598.859,797.361 588.664,803.521 568.747,797.676C561.051,795.418 554.972,793.956 550.377,792.042C545.524,790.019 541.978,787.441 539.429,783.854C536.982,780.409 535.373,775.906 535.012,769.446C534.289,756.497 536.593,748.952 540.13,743.998C542.853,740.184 546.406,737.646 550.715,735.706C561.612,730.799 611.006,707.305 633.982,698.665C638.497,696.967 642.116,695.816 644.423,695.342C645.396,695.142 646.229,695.036 646.909,694.996L649.223,695.094C649.542,695.143 649.865,695.207 650.191,695.284C650.078,693.425 650.018,691.088 650,688.048C649.932,676.711 649.832,665.056 649.252,662.023L645.976,656.815C636.127,661.947 616.058,673.238 613.678,675.635C611.17,678.163 610.502,681.3 608.844,689.573C607.174,697.901 602.278,703.534 596.127,706.273C590.137,708.941 582.694,708.911 575.33,705.108C567.773,701.207 558.513,694.105 552.82,688.352C549.729,685.229 547.614,682.308 546.701,680.276L546.536,679.901C544.871,683.022 543.017,686.319 540.958,689.948C533.603,702.912 526.532,724.168 520.481,737.23C519.375,739.618 518.237,741.766 517.106,743.646C521.442,747.437 526.717,752.785 529.045,758.041C532.066,764.861 531.581,771.572 525.227,777.056C517.188,783.994 507.872,784.373 498.872,780.093C491.645,776.656 484.56,769.818 479.21,761.23C472.765,750.886 470.598,743.978 470.341,739.547C470.275,738.41 470.314,737.373 470.43,736.427L471.147,733.338L472.565,730.477L474.549,728.131L476.376,726.747L478.219,725.827L480.299,725.192L483.064,724.843C483.351,724.831 483.64,724.827 483.931,724.831C486.799,712.332 492.524,686.172 495.063,666.001C498.035,642.384 495.775,604.365 493.308,589.066C492.056,589.014 490.636,588.967 489.284,588.947C482.059,588.841 472.74,588.81 465.972,587.934C461.071,587.299 456.135,586.902 453.396,586.709C453.07,588.167 452.641,589.863 452.17,591.137C450.921,594.515 448.859,597.559 445.65,599.65C442.541,601.674 438.144,603.024 431.618,601.88C424.014,600.546 418.576,597.812 414.565,593.854C408.945,588.31 405.962,579.949 405.023,567.607C404.343,558.669 403.433,550.487 404.44,544.151C405.906,534.922 410.424,528.443 421.372,526.167C431.421,524.079 439.101,528.255 444.213,533.134C446.103,534.938 447.61,536.824 448.734,538.428C461.896,539.767 504.612,544.439 531.932,551.237C558.976,557.966 583.682,566.086 591.251,568.636C594.833,567.734 601.112,566.493 606.049,567.323C607.692,567.599 609.226,568.068 610.595,568.717L613.7,570.717L615.969,573.233L617.552,576.36C619.685,582.463 622.087,593.398 615.994,603.409C612.207,609.631 604.985,615.872 591.136,619.71C574.701,624.263 564.016,621.156 558.341,616.265ZM802,502C811.99,525.729 811.22,618.778 809,656.217C806.78,693.656 805.393,749.52 803,751C800.607,752.48 786.406,756.951 781,753C775.594,749.049 769.017,749.781 769,757C768.983,764.219 786.186,774.756 794.869,776.803C803.552,778.851 821.469,768.959 833,767C844.531,765.041 877.425,752.243 879,753C880.575,753.757 876.423,761.155 884,764C891.577,766.845 893.775,763.087 901,753C908.225,742.913 924.37,717.401 935,702.49C945.63,687.579 950.076,686.944 938,672C925.924,657.056 916.277,664.667 907,674C897.723,683.333 887.873,706.796 876,725C864.127,743.204 828,745 828,745C826.353,731.738 833.772,682.742 851,634.472C868.228,586.201 865.359,564.015 866,529C866.641,493.985 859.647,486.194 859,481C858.728,478.817 881.698,467.9 872,446C863.26,426.264 837,443 837,443C837,443 820.564,451.217 810,458C799.436,464.783 786.748,476.767 783,485C779.252,493.233 784.89,502.228 790,505C795.11,507.772 801.335,500.419 802,502ZM919,486C920.394,488.084 921.144,522.11 920,563C918.856,603.89 914.963,628.65 916,634.472C917.037,640.293 915.13,630.006 902,637C888.87,643.994 895.16,649.04 900,651C904.84,652.96 910.112,650.074 922,650C933.888,649.926 966.553,653.555 968,653C968,653 965.231,663.637 976,663C986.769,662.363 986.62,659.892 997,654C1007.38,648.108 1013.9,649.392 1014,634.472C1014.1,619.552 1011.01,613.372 1001,613.957C990.988,614.541 980.827,629.323 980,631C980,631 962.477,629.801 954,631C945.523,632.199 936.562,633.891 935,633C933.438,632.109 938.753,617.896 941,606.729C943.247,595.562 945.238,585 945.238,585C945.238,585 955.169,585.074 958,586C960.831,586.926 965.832,586.455 966,588C966.168,589.545 967.323,596.574 974,600C980.677,603.426 985.685,605.477 989,599C992.315,592.523 996.828,579.551 997,569C997.172,558.449 999.474,546.388 987,550C974.526,553.612 971.545,566.502 971,567C970.455,567.498 962.388,568.231 958,568C953.612,567.769 950,567 950,567C950,567 952.992,556.655 957,532C961.008,507.345 964.048,489.714 963,483C961.952,476.286 959.812,470.794 965,471C970.188,471.206 978.794,468.387 984,466C989.206,463.613 998.809,463.633 1000,464C1001.19,464.367 999.885,474.042 1009,474C1018.12,473.958 1026.27,470.455 1036,455C1045.73,439.545 1047.9,427.222 1042,419C1036.1,410.778 1028.16,408.212 1021,410C1013.84,411.788 1017.65,417.202 1008,419C998.35,420.798 944.855,435.006 923,449C901.145,462.994 878.58,473.897 879,479C879.42,484.103 889.767,487.311 892,490C894.233,492.689 903.78,493.687 908,491C912.22,488.313 916.782,482.686 919,486ZM664,719C664,719 655.101,704.098 648,703C640.899,701.902 567.545,736.9 554,743C546.569,746.346 542.04,751.809 543,769C543.849,784.2 552.633,784.61 571,790C589.367,795.39 598.676,789.082 623,782C647.324,774.918 673.801,756.29 677,753C680.199,749.71 681.416,748.037 696,762C710.584,775.963 718.607,766.154 708,755C697.393,743.846 694.089,733.364 696,720C697.911,706.636 697.83,698.679 695,689C692.17,679.321 674.845,654.481 663,642C651.155,629.519 651.172,633.768 638,627C624.828,620.232 617.336,626.028 601,632C584.664,637.972 562.513,657 557,663C551.487,669 551.814,672.129 554,677C556.186,681.871 569.167,692.923 579,698C588.833,703.077 598.829,698.83 601,688C603.171,677.17 604.716,673.309 608,670C611.284,666.691 646.017,647.213 648,647C649.983,646.787 656.339,657.158 657,660C657.661,662.842 657.925,675.596 658,688C658.075,700.404 658.974,698.751 662,705C665.52,712.27 664,719 664,719ZM577,758C617.433,718.336 656,731 656,731C640.92,755.05 590.653,773.225 586,773C581.347,772.775 575.289,759.678 577,758ZM585.807,760.679L587.829,764.335C591.359,763.216 598.485,760.839 605.069,757.924C616.379,752.917 630.139,745.756 640.021,737.128C627.298,737.285 607.051,741.323 585.807,760.679ZM500,582C502.868,592.012 506.506,639.143 503,667C499.494,694.857 490,733.987 490,733.987C490,733.987 482.803,731.377 480,733.987C477.197,736.596 477.064,742.656 486,757C494.936,771.344 509.218,780.305 520,771C530.782,761.695 506,745 506,745C513.224,740.615 523.359,704.756 534,686C544.641,667.244 549.543,657.929 551,634C552.457,610.071 543.297,588.98 541.872,587C540.448,585.02 550.125,585.844 555,586C559.875,586.156 571.503,586.581 565,593C554.472,603.393 561.217,619.698 589,612C616.783,604.302 612.659,586.609 610,579C607.341,571.391 591,577 591,577C591,577 562.174,567.005 530,559C497.826,550.995 444,546 444,546C444,546 436.839,531.124 423,534C409.161,536.876 411.747,550.541 413,567C414.253,583.459 418.794,591.508 433,594C447.206,596.492 444.753,582.385 447,580C449.247,577.615 454.957,578.44 467,580C479.043,581.56 499.497,580.245 500,582ZM741,550C741,550 736.911,542.579 730,541C723.089,539.421 715.789,545.294 706,564C696.211,582.706 698.333,582.7 688,604C677.667,625.3 682.377,634.757 688,651C693.623,667.243 699.954,680.327 723,705C746.046,729.673 741.946,729.985 760,733C778.054,736.015 779.337,722.703 790,702C800.663,681.297 791.085,670.345 787,664C782.915,657.655 783.964,641.084 783,640C782.036,638.916 769.401,636.208 768,638C766.599,639.792 767.112,652.876 767,665C766.888,677.124 751.91,697.111 747,697C742.09,696.889 731.928,684.446 724,661C716.072,637.554 707.883,634.413 709,630C710.117,625.587 722.698,624.516 730,598C734.531,581.546 743,580 743,580C747.346,603.865 765.213,606.216 775,610C784.787,613.784 785.339,606.06 786,597C786.661,587.94 779.714,575.674 781,565C782.286,554.326 781.394,547.312 775,541C768.606,534.688 769.029,537.229 755,535.631C740.971,534.033 741,550 741,550ZM913.695,658.571C911.184,658.89 909.112,659.264 907.302,659.466C903.324,659.912 900.115,659.678 896.997,658.415C894.027,657.212 890.85,655.163 888.899,652.688L887.659,650.816L886.685,648.507L886.194,645.819L886.353,642.985C886.968,639.526 889.592,634.545 898.239,629.939C902.185,627.837 905.48,626.899 908.193,626.582C908.946,614.688 911.156,593.053 912.003,562.776C912.77,535.372 912.714,511.111 912.159,497.835C908.251,500.244 901.575,501.103 896.057,500.177C891.629,499.434 888.063,497.477 886.199,495.508C885.517,495.133 879.202,491.634 876.353,489.182C874.706,487.765 873.404,486.202 872.523,484.584L871.552,482.314L871.136,480.208C870.012,481.437 868.956,482.475 868.06,483.304C868.188,483.631 868.321,483.98 868.454,484.354C870.844,491.059 874.478,502.973 873.999,529.146C873.342,565.01 876.18,587.72 858.535,637.161C844.356,676.888 836.795,717.07 835.835,736.08C840.193,735.402 845.789,734.255 851.379,732.337C858.338,729.95 865.476,726.491 869.299,720.63C881.495,701.932 891.797,677.947 901.326,668.36C905.276,664.386 909.42,660.898 913.695,658.571ZM553.753,595.506C553.962,594.997 554.193,594.491 554.446,593.987L553.247,593.954C553.416,594.458 553.584,594.976 553.753,595.506ZM218.317,486.397C212.04,484.744 205.896,482.614 201.465,480.959C198.29,487.369 192.945,500.473 187.812,523.725C179.409,561.787 185.818,604.193 186.995,636.711C187.111,639.919 187.35,643.144 187.687,646.351C189.238,641.232 192.317,635.524 197.772,629.316C201.561,625.004 208.481,620.969 216.841,617.723C233.55,611.236 256.261,607.223 263.303,605.906C270.531,604.555 275.79,604.534 279.382,605.269C281.197,605.64 282.72,606.204 283.995,606.879L285.697,607.996C288.91,599.903 292.991,590.051 295.137,586.54C297.041,583.426 299.022,575.761 300.051,571.388C299.139,571.109 298.132,570.825 297.175,570.607C288.278,568.578 274.447,567.138 263.287,568.182C252.305,569.21 240.848,574.152 237.782,575.551C237.842,576.791 237.96,578.048 237.85,579.182L237.273,582.032L236.33,584.209L235.084,586.009L233.455,587.585C231.479,589.154 228.343,590.623 222.981,590.53C215.678,590.402 210.895,587.38 207.038,582.558C204.382,579.238 202.261,574.77 199.688,569.912C194.046,559.262 192.984,560.122 192.808,550.697C192.719,545.932 195.7,540.292 203.517,536.018C214.13,530.215 236.103,525.329 264.387,523.962C298.169,522.33 317.137,534.749 323.608,540.517C325.256,541.986 326.298,543.22 326.838,543.98L327.852,545.752L328.394,547.451C328.743,549.15 332.183,563.873 332.276,574.278C332.368,584.671 333.995,593.379 333.684,595.562C333.587,596.239 332.899,598.481 331.36,601.587C327.489,609.401 317.648,626.978 312.238,634.717C309.395,638.785 304.983,648.08 301.424,656.017C305.387,656.303 309.926,657.942 314.636,662.017C319.915,666.587 321.152,672.083 320.003,677.789C319.122,682.159 316.343,686.817 313.095,690.86C315.071,690.579 317.045,690.769 319.094,691.204C321.563,691.729 324.27,693.066 327.822,693.689L328.217,693.761C325.88,687.441 323.965,681.519 321.994,675.992C318.789,667.002 318.675,661.438 319.72,657.099C320.744,652.844 323.058,649.611 326.013,645.399C330.586,638.881 332.959,631.921 342.597,617.833C354.318,600.7 362.815,597.497 367.482,596.411L369.876,596.085L372.163,596.188L375.197,596.945L377.707,598.14C381.169,600.173 383.884,603.627 385.034,605.963C386.208,608.347 386.223,611.249 391.211,636.457C395.956,660.43 392.522,655.755 394.191,669.962C394.777,674.947 394.001,678.202 392.993,680.283L390.612,683.562L387.154,685.765L384.032,686.505L380.258,686.318C377.514,685.818 374.319,684.264 372.016,683.248C367.945,681.453 365.524,680.356 363.534,678.455C362.99,677.935 362.461,677.352 361.942,676.664C367.052,689.777 373.466,701.532 377.357,713.403C381.578,726.278 387.882,738.5 390.731,746.856L390.813,747.099C392.804,719.614 391.475,710.798 400.026,678.793C404.649,661.491 405.985,649.994 406.275,643.282L403.762,642.241C402.95,641.805 402.102,641.258 401.23,640.566L399.362,638.823L397.716,636.552L396.356,632.684L396.448,628.637L397.265,626.057L398.407,623.935C400.22,621.112 403.929,617.718 409.272,613.851C419.162,606.693 432.887,603.533 439.776,603.04C443.176,602.797 446.808,603.899 450.233,606.188C455.139,609.466 459.804,615.537 462.125,618.453C466.919,624.475 467.113,634.368 460.784,642.137C460.38,643.175 457.676,650.188 455.574,656.885C452.022,668.203 447.779,683.073 444.417,695.099C450.934,690.982 457.494,687.068 460.741,685.813C468.024,682.996 476.526,685.672 481.688,690.387C484.014,692.511 485.653,695.002 486.493,697.412L487.193,700.649L486.955,704.32C485.941,708.888 481.769,718.69 476.389,723.539C474.29,725.431 471.994,726.711 469.668,727.327L466.655,727.769L463.471,727.473L460.438,726.484L457.609,724.751L455.33,722.296L454.898,721.449C449.132,723.858 441.757,727.288 437.523,730.609C435.55,732.156 433.491,733.751 432.067,734.851C434.325,739.002 440.451,749.861 448.15,758.657C451.124,762.055 454.252,765.255 457.509,767.28C457.846,766.926 458.201,766.582 458.574,766.256L462.282,763.837L465.61,762.803L468.758,762.634L471.949,763.219L475.51,764.889L478.337,767.338C479.759,768.932 480.921,770.927 481.708,773.253C483.488,778.518 483.29,785.867 480.254,792.732C477.466,799.038 472.399,801.796 467.215,802.695C461.095,803.757 454.924,801.754 454.924,801.754C454.727,801.689 454.532,801.617 454.341,801.537C454.341,801.537 439.42,795.667 425.837,775.037C425.338,782.286 424.98,788.582 425.061,790.75L424.972,793.204L424.391,795.82L423.585,797.643L422.346,799.416L419.414,801.739L416.149,802.798C412.397,803.359 406.226,801.015 401.979,796.584C400.147,794.673 397.57,792.585 395.214,788.473C392.686,784.06 390.26,777.086 390.017,764.651C388.335,767.377 385.846,770.402 382.738,773.252C375.848,779.572 366.121,785.137 358.84,785.848C354.077,786.313 348.233,785.391 342.276,783.786C334.952,781.813 327.391,778.829 322.164,777.579C310.77,774.853 305.686,770.564 300.266,761.658C295.346,753.576 293.909,733.705 295.127,725.459C295.781,721.037 296.278,714.369 297.749,708.551C298.371,706.089 299.185,703.769 300.184,701.691C294.339,704.81 287.393,706.942 280.011,707.973C274.62,708.726 270.41,707.533 267.159,705.386C260.599,701.052 257.642,691.486 259.092,681.763C259.143,681.417 259.205,681.059 259.276,680.69C255.331,682.673 250.483,684.904 244.723,688.816C233.219,696.631 232.844,697.648 219.395,697.637C211.69,697.63 208.239,696.937 205.692,695.563C203.168,694.2 201.283,691.946 197.502,687.155C196.779,686.238 196.128,685.323 195.538,684.411C196.979,689.317 198.345,693.449 199.399,696.479C217.066,696.174 229.978,706.833 236.261,716.673C239.909,722.385 241.27,728.005 240.974,731.649C240.55,736.852 238.556,742.377 233.882,746.426C228.279,751.28 217.579,754.755 197.656,748.649C177.729,742.542 160.551,733.475 152.521,725.066C147.22,719.514 145.326,713.742 146.094,708.776C147.226,701.465 152.354,697.237 158.603,695.277C159.18,695.096 159.766,694.937 160.354,694.798C149.868,670.064 138.533,645.973 128.164,595.613C118.588,549.101 118.624,478.987 118.891,457.371C116.357,456.584 113.552,455.542 110.64,454.309C105.699,452.217 100.355,449.625 95.639,447.223C95.658,449.452 95.53,451.378 95.281,453.022C94.498,458.197 92.455,461.484 90.141,463.511L86.438,465.765L82.415,466.636C79.576,466.803 76.132,466.064 72.341,464.114C65.815,460.758 61.302,459.998 56.988,455.738C53.94,452.727 50.859,448.034 47.694,439.315C44.865,431.52 41.303,428.359 38.707,424.895C34.867,419.771 31.989,414.373 32.881,401.449C33.784,388.363 37.87,374.747 43.201,364.791C47.367,357.01 52.492,351.401 57.316,348.899C62.804,346.052 68.104,345.136 73.405,346.095C80.293,347.341 87.608,352.08 95.339,362.119C101.521,370.148 101.878,376.571 100.844,381.153C100.744,381.597 100.628,382.028 100.498,382.446C115.327,388.41 145.703,400.373 177.621,411.442C215.56,424.598 249.319,447.959 260.232,455.934C271.246,452.319 278.957,455.144 283.351,459.399C291.536,467.325 290.624,483.72 277.129,491.852C263.501,500.064 253.753,510.654 244.814,517.389C237.711,522.742 231.081,524.365 226.224,523.057C220.977,521.644 215.695,516.862 214.105,505.301C213.1,497.998 215.21,491.541 218.317,486.397ZM332.309,719.351C332.292,719.319 332.288,719.285 332.298,719.249C332.322,719.158 332.325,719.197 332.309,719.351C332.762,720.217 342.577,719.477 341.722,713.3C340.836,706.896 333.769,702.854 326.441,701.569C319.113,700.285 315.25,696.144 309.929,701.384C304.609,706.624 304.079,719.605 303.041,726.628C302.004,733.651 302.91,750.616 307.099,757.499C311.289,764.382 315.22,767.692 324.026,769.798C332.831,771.905 348.199,778.848 358.063,777.886C367.927,776.923 382.876,764.189 384.488,757.817C386.099,751.445 375.801,734.337 369.755,715.895C362.92,695.045 348.729,674.466 346.417,646.725C346.417,646.725 352.95,628.365 354.025,627.306C355.1,626.247 359.277,627.174 359.188,628.526C359.099,629.878 362.739,656.22 365.322,664.863C367.904,673.505 369.403,673.352 375.245,675.929C379.559,677.832 387.635,682.721 386.246,670.896C384.607,656.953 388.02,661.537 383.364,638.01C378.708,614.482 378.952,611.722 377.857,609.497C376.761,607.272 373.144,603.308 369.295,604.203C365.446,605.099 358.865,608.222 349.199,622.35C339.534,636.479 337.148,643.456 332.562,649.993C327.977,656.53 324.653,659.627 329.53,673.305C334.407,686.984 338.869,703.19 350.75,721.928C350.75,721.928 368.179,751.914 366.176,753.803C364.172,755.692 345.549,765.274 341.168,762.834C336.786,760.395 328.362,754.648 329.269,743.986C330.094,734.281 332.149,720.909 332.309,719.351ZM343.256,725.038L342.738,725.372C341.67,725.954 340.518,726.402 339.361,726.738C338.659,731.824 337.73,738.895 337.24,744.663C336.766,750.244 340.858,753.364 343.731,755.085C345.012,754.76 348.123,753.937 350.241,753.077C352.193,752.284 354.434,751.191 356.366,750.196L343.866,726.011C343.661,725.686 343.458,725.362 343.256,725.038ZM200.807,550.548C200.951,558.267 202.137,557.445 206.757,566.167C211.378,574.89 214.091,582.373 223.121,582.531C232.151,582.688 229.465,577.132 229.815,572.861C230.165,568.591 243.508,561.998 262.542,560.217C281.575,558.436 307.84,563.343 308.657,566.911C309.474,570.479 305.675,584.64 301.963,590.712C298.25,596.785 288.574,622.695 288.574,622.695C288.574,622.695 283.934,617.81 281.88,615.258C279.826,612.705 274.523,611.948 264.773,613.77C255.023,615.592 214.264,622.666 203.782,634.596C193.3,646.526 193.466,655.925 195.6,662.116C197.735,668.308 198.293,675.244 203.782,682.199C209.271,689.154 208.312,689.627 219.402,689.637C230.491,689.646 230.742,688.642 240.228,682.199C249.714,675.755 256.69,674.2 261.054,670.298C265.418,666.397 271.667,659.8 273.698,660.629C275.73,661.457 268.366,673.808 267.004,682.943C265.642,692.077 268.681,701.477 278.905,700.05C289.129,698.622 298.464,694.918 304.194,688.893C309.924,682.868 316.212,673.961 309.4,668.067C302.589,662.172 296.516,663.892 294.525,665.835C292.534,667.779 289.264,669.697 287.831,668.811C286.397,667.924 299.131,639.504 305.682,630.133C312.232,620.763 325.47,596.492 325.764,594.431C326.058,592.371 324.364,584.161 324.276,574.349C324.189,564.537 320.886,550.662 320.557,549.06C320.228,547.458 302.852,530.113 264.773,531.953C226.694,533.793 200.644,541.837 200.807,550.548ZM208.551,672.877C209.031,670.93 208.694,662.343 214.195,655.422C220.546,647.432 221.687,645.925 229.815,642.034C237.943,638.143 267.17,629.147 271.467,628.646C275.764,628.145 286.451,630.49 285.534,633.852C284.616,637.215 282.21,640.886 280.393,642.034C278.575,643.182 247.103,655.294 231.302,662.86C218.266,669.103 210.345,671.895 208.551,672.877ZM208.551,672.877C208.476,673.178 208.383,673.32 208.245,673.273C208.065,673.212 208.17,673.085 208.551,672.877ZM222.098,658.335C223.888,657.517 225.806,656.622 227.847,655.645C240.865,649.411 264.734,640.1 273.159,636.59C272.863,636.569 272.603,636.568 272.394,636.592C268.356,637.063 240.909,645.593 233.269,649.25C227.325,652.095 225.973,653.473 222.098,658.335ZM413.963,634.299C413.963,634.299 416.58,647.829 407.755,680.858C398.93,713.888 400.897,721.732 398.443,752.249C395.989,782.767 404.018,787.15 407.755,791.049C411.492,794.947 417.301,797.332 417.067,791.049C416.832,784.765 420.171,744.489 420.171,744.489C433.12,784.026 457.418,794.153 457.418,794.153C457.418,794.153 469.173,798.009 472.938,789.497C476.495,781.453 474.982,772.502 469.623,770.873C463.66,769.061 460.522,777.081 460.522,777.081C444.589,773.725 428.493,745.061 424.827,738.281C421.16,731.502 423.02,731.816 432.586,724.314C442.153,716.811 461.627,709.846 462.074,710.346C462.521,710.846 458.259,718.146 465.178,719.658C472.097,721.169 478.018,707.663 479.146,702.586C480.273,697.509 470.999,690.424 463.626,693.274C456.253,696.125 431.034,713.45 431.034,713.45C433.044,706.334 450.405,641.949 454.314,637.403C458.223,632.857 458.704,627.001 455.866,623.435C453.028,619.87 446.302,610.594 440.346,611.02C434.39,611.446 422.513,614.143 413.963,620.331C405.413,626.52 401.57,630.622 406.203,634.299C410.836,637.976 413.963,634.299 413.963,634.299ZM259,465C259,465 220.026,434.614 175,419C129.974,403.386 88,386 88,386C88,386 99.167,380.204 89,367C78.833,353.796 70.382,351.133 61,356C51.618,360.867 42.234,382.112 40.862,402C39.49,421.888 48.775,418.843 55.214,436.585C61.653,454.328 66.617,452.174 76,457C85.383,461.826 90.502,456.809 86,433C86,433 117.057,450.616 127,451C127,451 124.703,539.132 136,594C147.631,650.493 160.534,673.5 172,702C172,702 155.531,700.106 154,710C152.469,719.894 173.788,732.967 200,741C226.212,749.033 232.332,739.207 233,731C233.668,722.793 218.595,700.839 194,705C194,705 180.198,670.097 179,637C177.802,603.903 171.447,560.741 180,522C188.553,483.259 198,471 198,471C198,471 220.351,480.682 234,481C234,481 220.141,490.477 222.03,504.211C223.92,517.945 230.883,517.87 240,511C249.117,504.13 259.099,493.377 273,485C286.901,476.623 281.81,454.627 259,465Z"/>
        </g>
    </g>
</svg>
